PathFileType	4	(X/Y/Z)	./resultDataOpenSim/trcMotMarkerGrf/sub09/qtm-05-02.trc
DataRate	CameraRate	NumFrames	NumMarkers	Units	OrigDataRate	OrigDataStartFrame	OrigNumFrames
250.000000	250.000000	9	24	m	250.000000	193	514
Frame#	Time	L.Toe.Tip			R.Toe.Tip			L.Ankle.Lat			R.Ankle.Lat			L.Ankle.Med			R.Ankle.Med			L.Heel			R.Heel			L.Knee.Lat			R.Knee.Lat			L.Knee.Med			R.Knee.Med			L.Thigh.Upper			R.Thigh.Upper			L.ASIS			R.ASIS			V.Sacral			L.Acromium			R.Acromium			C7			L.Elbow			R.Elbow			L.Wrist.Lat			R.Wrist.Lat
		X1	Y1	Z1	X2	Y2	Z2	X3	Y3	Z3	X4	Y4	Z4	X5	Y5	Z5	X6	Y6	Z6	X7	Y7	Z7	X8	Y8	Z8	X9	Y9	Z9	X10	Y10	Z10	X11	Y11	Z11	X12	Y12	Z12	X13	Y13	Z13	X14	Y14	Z14	X15	Y15	Z15	X16	Y16	Z16	X17	Y17	Z17	X18	Y18	Z18	X19	Y19	Z19	X20	Y20	Z20	X21	Y21	Z21	X22	Y22	Z22	X23	Y23	Z23	X24	Y24	Z24

193	0.768	0.21530332	-0.058163621	0.066640135	-0.54855224	0.055049253	0.12026351	0.073932797	-0.026923651	0.0038989198	-0.61217678	0.18839606	0.16365491	0.079538725	-0.0080816692	0.10120762	-0.56091879	0.19120086	0.07911774	-0.0028407613	-0.063733517	0.037673055	-0.6572299	0.22802313	0.10133125	0.11113118	0.38624146	-0.047222523	-0.20046232	0.3639659	0.2503565	0.093683533	0.39162129	0.076650685	-0.18997795	0.33635258	0.12598147	-0.078363872	0.76614078	-0.10774575	-0.15033622	0.75026948	0.26318317	-0.018489939	0.85256613	-0.035922111	-0.035217047	0.83536611	0.20544389	-0.19390919	0.89413039	0.07182166	-0.073695158	1.2889993	-0.093816069	-0.082197365	1.3051146	0.24022934	-0.146219	1.3482165	0.073237902	-0.23385854	0.96413486	-0.13887496	-0.22168376	0.95367412	0.33196728	-0.17426252	0.71562319	-0.19157301	0.027947034	0.82714823	0.30017197
194	0.772	0.21530574	-0.058465143	0.067011118	-0.54461652	0.056984891	0.12133048	0.074077158	-0.027201997	0.0041025036	-0.60210478	0.19334255	0.16599873	0.079531881	-0.0083203992	0.10151333	-0.55075348	0.19457474	0.081419299	-0.00287585	-0.063710373	0.037691315	-0.6455754	0.2348677	0.10380647	0.11563023	0.38446218	-0.047353728	-0.18842379	0.36210089	0.25102669	0.10008764	0.39037998	0.076479039	-0.17828328	0.33453917	0.12669352	-0.07264327	0.76572996	-0.1082693	-0.14388041	0.74872736	0.26298724	-0.012032938	0.85262293	-0.036673559	-0.029195156	0.83428798	0.20467069	-0.18901674	0.89478269	0.074136538	-0.066248786	1.2884203	-0.093763972	-0.074506634	1.3044796	0.24019473	-0.13908239	1.3478074	0.073257054	-0.22560064	0.96306205	-0.13881041	-0.21622049	0.95410012	0.33164233	-0.16511099	0.714627	-0.19135845	0.031482771	0.82352209	0.30025802
195	0.776	0.2153725	-0.058711897	0.067303018	-0.5403237	0.058944391	0.12251812	0.074315326	-0.027459995	0.0043356889	-0.59152809	0.19809218	0.16831638	0.079706039	-0.0085408693	0.10181059	-0.5402645	0.19792981	0.083527806	-0.0028472012	-0.063638862	0.037762571	-0.63358116	0.24155981	0.10638925	0.11973414	0.3827633	-0.047579932	-0.1763435	0.36033689	0.25160618	0.10607032	0.38878758	0.076307134	-0.16632901	0.33310377	0.12729489	-0.066929549	0.76518485	-0.10861949	-0.13749855	0.7473572	0.26275077	-0.0056571722	0.85261179	-0.037344056	-0.023204683	0.8333879	0.20400518	-0.1841738	0.89536355	0.075909488	-0.058866131	1.287973	-0.093695926	-0.066860319	1.3039632	0.24017982	-0.13197634	1.3475258	0.07325252	-0.21735659	0.96206661	-0.13878292	-0.21081383	0.95464641	0.33141803	-0.15573447	0.71375544	-0.19106616	0.034890185	0.81997191	0.30033888
196	0.78	0.21552416	-0.058918485	0.067499269	-0.53553086	0.060950668	0.12386241	0.074657964	-0.027711706	0.0045718883	-0.58051302	0.20264173	0.17055441	0.080065393	-0.0087524774	0.1020817	-0.52952151	0.20133841	0.085360854	-0.0027652965	-0.063516883	0.037883933	-0.62133237	0.24805212	0.10908159	0.12368434	0.38113806	-0.047806686	-0.1641737	0.35869208	0.25205045	0.11159219	0.38698293	0.07611458	-0.15432305	0.33198981	0.12778503	-0.061222007	0.76456561	-0.10885608	-0.13107287	0.74618552	0.26241481	0.00066300534	0.85253875	-0.037907374	-0.017233706	0.8326792	0.20345834	-0.17904919	0.89527817	0.076151902	-0.051536097	1.287653	-0.093618797	-0.059307387	1.3035654	0.24017574	-0.12489883	1.3473622	0.073230446	-0.20918104	0.96117061	-0.13880931	-0.20546803	0.95528715	0.3312596	-0.14613406	0.71302999	-0.19069598	0.038141156	0.81648777	0.30040232
197	0.784	0.21570877	-0.059098152	0.067656148	-0.53007462	0.063052446	0.12539155	0.075033566	-0.027968951	0.0047542483	-0.56918636	0.20698745	0.17272065	0.080491096	-0.0089462862	0.10228969	-0.51849655	0.20478193	0.087011238	-0.0026703981	-0.063374649	0.037991707	-0.60882854	0.25431361	0.11185755	0.12754508	0.37961759	-0.047965241	-0.15184913	0.35720494	0.25232488	0.1166159	0.38513619	0.075886399	-0.14242409	0.33113802	0.12807669	-0.055469115	0.76396512	-0.1090686	-0.12452237	0.74522814	0.26195825	0.0069308325	0.85242405	-0.038367346	-0.011333624	0.83217003	0.20300913	-0.17367432	0.89433815	0.07435281	-0.044254099	1.28746	-0.093542007	-0.05192396	1.3033024	0.24016484	-0.11784336	1.347335	0.073196585	-0.20112545	0.96040401	-0.13890697	-0.20009992	0.95600883	0.33114441	-0.136376	0.71246313	-0.19027595	0.041220664	0.81306686	0.3004442
198	0.788	0.2158569	-0.059255889	0.067808273	-0.52382903	0.065302764	0.12710165	0.075353505	-0.02823103	0.0048365384	-0.55767399	0.21113912	0.17489657	0.080835814	-0.009100923	0.10240554	-0.50709182	0.20819446	0.088671426	-0.0026073635	-0.063247079	0.038030598	-0.59604356	0.26035449	0.11460566	0.1311951	0.37835396	-0.048167163	-0.13935722	0.3559188	0.25244107	0.12112276	0.38342769	0.075624228	-0.13058814	0.33052736	0.1281257	-0.049616353	0.76348899	-0.10931963	-0.11785149	0.74448882	0.26141258	0.013133445	0.85230008	-0.038743275	-0.0055474809	0.83187058	0.20264409	-0.16813173	0.89315216	0.071426395	-0.037027729	1.2874014	-0.093474317	-0.044752858	1.3031966	0.240145	-0.1108035	1.3474719	0.073141813	-0.19319042	0.95977585	-0.13907474	-0.1945671	0.95680773	0.33108407	-0.12652854	0.71205638	-0.18982909	0.044156603	0.8097274	0.30047329
199	0.792	0.21592305	-0.059385276	0.067931309	-0.51664578	0.067760336	0.12896378	0.075562206	-0.028480757	0.0048121708	-0.54602505	0.21515924	0.17708643	0.081023631	-0.009199975	0.10242843	-0.49529614	0.21157458	0.090400607	-0.002602269	-0.063153637	0.037990093	-0.58297798	0.26617613	0.11713598	0.13448201	0.37756501	-0.048672053	-0.1267146	0.35486324	0.25242582	0.12511655	0.3820124	0.075357929	-0.11862973	0.33015159	0.1279631	-0.04364683	0.76322895	-0.10960331	-0.1112034	0.74395606	0.26088347	0.019263732	0.85220611	-0.039043868	0.00012743339	0.83178784	0.20236901	-0.16233536	0.89256541	0.069142163	-0.029860022	1.287487	-0.093416026	-0.037790549	1.3032565	0.24012624	-0.103783	1.347781	0.073057405	-0.18532674	0.95926741	-0.13928722	-0.18879149	0.95768526	0.33110859	-0.1166122	0.7118097	-0.18935576	0.047030424	0.80651408	0.30051705
200	0.796	0.21590433	-0.059480114	0.067998304	-0.50829245	0.070488819	0.13096511	0.075660667	-0.028697258	0.0047171517	-0.53419074	0.21916466	0.179151	0.081075744	-0.0092443553	0.10238506	-0.48325987	0.21503302	0.092021742	-0.002653013	-0.063090751	0.037896772	-0.56973323	0.27170532	0.11932741	0.1374058	0.37732804	-0.049600911	-0.11394099	0.35405282	0.25230076	0.12861271	0.38097357	0.075129888	-0.10644078	0.32999546	0.12766383	-0.037569442	0.7632474	-0.10987281	-0.10480515	0.74362728	0.26049968	0.025331827	0.85217957	-0.039255643	0.0057209371	0.83191803	0.20219056	-0.15612405	0.89276121	0.068334349	-0.022738572	1.2877168	-0.093360119	-0.03101382	1.3034738	0.24012133	-0.096795576	1.3482463	0.072951299	-0.17750706	0.95886804	-0.13954845	-0.18281919	0.95864854	0.33122545	-0.10660359	0.71172936	-0.18884749	0.049923004	0.80347504	0.30061139
201	0.8	0.21583487	-0.059546531	0.068023615	-0.49859348	0.073508212	0.13312146	0.075697244	-0.028869639	0.0046085284	-0.52208878	0.22325094	0.18096467	0.081063593	-0.0092505638	0.10231247	-0.47113632	0.21868744	0.093343635	-0.0027330832	-0.063039353	0.037790943	-0.55651595	0.27680782	0.12119272	0.14016456	0.37736854	-0.050641784	-0.10105325	0.35348954	0.25208639	0.13162772	0.38030124	0.074970346	-0.094111281	0.33006148	0.12728961	-0.031396902	0.76357301	-0.11008476	-0.09871022	0.74352406	0.26025938	0.031352747	0.85225056	-0.039359507	0.0112579	0.83224871	0.20210518	-0.14960158	0.89336484	0.068468613	-0.015650351	1.2880797	-0.093298712	-0.024396396	1.3038355	0.24014737	-0.089858198	1.3488496	0.072839548	-0.16974767	0.95860279	-0.13986568	-0.17675865	0.95969947	0.3314034	-0.096480254	0.71182418	-0.18829726	0.052852805	0.80063062	0.30077734
